<svg width="25" height="17" viewBox="0 0 25 17" fill="none" xmlns="http://www.w3.org/2000/svg">
<path d="M16.6667 15.5833C16.6667 16.3657 16.0324 17 15.25 17H1.41667C0.634263 17 0 16.3657 0 15.5833C0 14.8009 0.634263 14.1667 1.41667 14.1667H15.25C16.0324 14.1667 16.6667 14.8009 16.6667 15.5833ZM25 8.5C25 9.2824 24.3657 9.91667 23.5833 9.91667H1.41667C0.634262 9.91667 0 9.2824 0 8.5C0 7.7176 0.634263 7.08333 1.41667 7.08333H23.5833C24.3657 7.08333 25 7.7176 25 8.5ZM16.6667 1.41667C16.6667 2.19907 16.0324 2.83333 15.25 2.83333H1.41667C0.634263 2.83333 0 2.19907 0 1.41667C0 0.634263 0.634263 0 1.41667 0H15.25C16.0324 0 16.6667 0.634263 16.6667 1.41667Z" fill="#625FFD"/>
</svg>
