<svg width="24" height="24" viewBox="0 0 24 24" fill="none" xmlns="http://www.w3.org/2000/svg">
<path d="M16.95 19.5C15.3 20.625 13.2 21.225 10.95 20.925C6.825 20.475 3.45 17.1 3 12.975C2.475 7.575 6.675 3 12 3C12.225 3 12.45 3 12.6 3C18.225 3.375 21.9 9.225 20.1 14.625V14.7C19.725 15.75 18.75 16.5 17.625 16.5C16.2 16.5 15 15.3 15 13.875V8.25" stroke="black" stroke-miterlimit="10" stroke-linecap="round" stroke-linejoin="round"/>
<path d="M12 15.75C10.35 15.75 9 14.4 9 12.75V11.25C9 9.6 10.35 8.25 12 8.25C13.65 8.25 15 9.6 15 11.25V12.75C15 14.4 13.65 15.75 12 15.75Z" stroke="black" stroke-miterlimit="10" stroke-linecap="round" stroke-linejoin="round"/>
</svg>
