<svg width="14" height="22" viewBox="0 0 14 22" fill="none" xmlns="http://www.w3.org/2000/svg">
<path d="M7 20.9773C10.5694 20.9773 13.4629 18.0838 13.4629 14.5144C13.4629 10.9451 10.5694 8.05155 7 8.05155C3.43064 8.05155 0.537109 10.9451 0.537109 14.5144C0.537109 18.0838 3.43064 20.9773 7 20.9773Z" stroke="#848484" stroke-linecap="round" stroke-linejoin="round"/>
<path d="M10.2656 8.93905V4.28777C10.2655 3.42185 9.92145 2.59144 9.30915 1.97915C8.69686 1.36685 7.86645 1.02281 7.00054 1.02267V1.02267C6.13453 1.02267 5.30398 1.36665 4.69157 1.97896C4.07916 2.59127 3.73504 3.42176 3.73489 4.28777V8.93905" stroke="#848484" stroke-linecap="round" stroke-linejoin="round"/>
<path d="M7 15.3583C7.96513 15.3583 8.74753 14.5759 8.74753 13.6108C8.74753 12.6457 7.96513 11.8633 7 11.8633C6.03487 11.8633 5.25247 12.6457 5.25247 13.6108C5.25247 14.5759 6.03487 15.3583 7 15.3583Z" stroke="#848484" stroke-linecap="round" stroke-linejoin="round"/>
<path d="M7 15.3583V17.1656" stroke="#848484" stroke-linecap="round" stroke-linejoin="round"/>
</svg>
