<svg width="20" height="21" viewBox="0 0 20 21" fill="none" xmlns="http://www.w3.org/2000/svg">
<path d="M10 1C9.01109 1 8.04439 1.29324 7.22215 1.84265C6.3999 2.39206 5.75904 3.17295 5.3806 4.08658C5.00216 5.00021 4.90315 6.00555 5.09607 6.97545C5.289 7.94536 5.7652 8.83627 6.46447 9.53553C7.16373 10.2348 8.05464 10.711 9.02455 10.9039C9.99445 11.0969 10.9998 10.9978 11.9134 10.6194C12.827 10.241 13.6079 9.6001 14.1573 8.77785C14.7068 7.95561 15 6.98891 15 6C15 4.67392 14.4732 3.40215 13.5355 2.46447C12.5979 1.52678 11.3261 1 10 1V1ZM10 9C9.40666 9 8.82664 8.82405 8.33329 8.49441C7.83994 8.16476 7.45542 7.69623 7.22836 7.14805C7.0013 6.59987 6.94189 5.99667 7.05764 5.41473C7.1734 4.83279 7.45912 4.29824 7.87868 3.87868C8.29824 3.45912 8.83279 3.1734 9.41473 3.05764C9.99667 2.94189 10.5999 3.0013 11.1481 3.22836C11.6962 3.45542 12.1648 3.83994 12.4944 4.33329C12.8241 4.82664 13 5.40666 13 6C13 6.79565 12.6839 7.55871 12.1213 8.12132C11.5587 8.68393 10.7956 9 10 9V9ZM19 20V19C19 17.1435 18.2625 15.363 16.9497 14.0503C15.637 12.7375 13.8565 12 12 12H8C6.14348 12 4.36301 12.7375 3.05025 14.0503C1.7375 15.363 1 17.1435 1 19V20H3V19C3 17.6739 3.52678 16.4021 4.46447 15.4645C5.40215 14.5268 6.67392 14 8 14H12C13.3261 14 14.5979 14.5268 15.5355 15.4645C16.4732 16.4021 17 17.6739 17 19V20H19Z" fill="#B1B1B1" stroke="white" stroke-width="0.5"/>
</svg>
